<svg class="svg-icon" style="width: 1em;height: 1em;vertical-align: middle;fill: currentColor;overflow: hidden;" viewBox="0 0 1024 1024" version="1.1" xmlns="http://www.w3.org/2000/svg"><path d="M739.072 518.656l-19.712 18.432c-26.368 24.576-44.288 68.096-43.008 104.192l1.024 26.88c0.256 5.888-3.328 9.472-9.216 9.216l-26.88-1.024c-36.096-1.28-79.36 16.64-104.192 43.008l-18.432 19.712c-4.096 4.352-8.96 4.352-13.056 0l-18.432-19.712c-24.576-26.368-68.096-44.288-104.192-43.008l-26.88 1.024c-5.888 0.256-9.472-3.328-9.216-9.216l1.024-26.88c1.28-36.096-16.64-79.36-43.008-104.192l-19.712-18.432c-4.352-4.096-4.352-8.96 0-13.056l19.712-18.432c26.368-24.576 44.288-68.096 43.008-104.192l-1.024-26.88c-0.256-5.888 3.328-9.472 9.216-9.216l26.88 1.024c36.096 1.28 79.36-16.64 104.192-43.264l18.432-19.712c4.096-4.352 9.216-4.352 13.056 0l18.432 19.712c24.576 26.368 68.096 44.288 104.192 43.264l26.88-1.024c5.888-0.256 9.472 3.328 9.216 9.216l-1.024 26.88c-1.28 36.096 16.64 79.36 43.008 104.192l19.712 18.432c4.352 3.84 4.352 8.96 0 13.056m35.072-50.688l-19.712-18.432c-15.616-14.592-27.648-43.776-26.88-65.024l1.024-26.88a59.264 59.264 0 0 0-62.208-62.208l-26.88 1.024c-21.248 0.768-50.432-11.264-65.024-26.88l-18.432-19.712a59.6736 59.6736 0 0 0-88.064 0l-18.432 19.712c-14.592 15.616-43.776 27.648-65.024 26.88l-26.88-1.024a59.264 59.264 0 0 0-62.208 62.208l1.024 26.88c0.768 21.504-11.264 50.432-26.88 65.024l-19.712 18.432a59.6736 59.6736 0 0 0 0 88.064l19.712 18.432c15.616 14.592 27.648 43.776 26.88 65.024l-1.024 26.88a59.264 59.264 0 0 0 62.208 62.208l26.88-1.024c21.248-0.768 50.432 11.264 65.024 26.88l18.432 19.712a59.6736 59.6736 0 0 0 88.064 0l18.432-19.712c14.592-15.616 43.776-27.648 65.024-26.88l26.88 1.024c35.584 1.28 63.488-26.624 62.208-62.208l-1.024-26.88c-0.768-21.504 11.264-50.432 26.88-65.024l19.712-18.432a59.6736 59.6736 0 0 0 0-88.064M512 576a64 64 0 0 1 0-128 64 64 0 0 1 0 128m0-179.2c-63.744 0-115.2 51.456-115.2 115.2s51.456 115.2 115.2 115.2 115.2-51.456 115.2-115.2-51.456-115.2-115.2-115.2"  /></svg>